<svg width="95" height="36" viewBox="0 0 95 36" fill="none" xmlns="http://www.w3.org/2000/svg">
<g clip-path="url(#clip0_2_2)">
<mask id="mask0_2_2" style="mask-type:luminance" maskUnits="userSpaceOnUse" x="0" y="0" width="95" height="36">
<path d="M95 0H0V36H95V0Z" fill="white"/>
</mask>
<g mask="url(#mask0_2_2)">
<path d="M37.518 26.268C37.9373 26.268 38.147 26.8353 38.147 27.97C38.147 28.5867 37.888 29.339 37.37 30.227C36.852 31.0903 36.1737 31.892 35.335 32.632C34.521 33.3473 33.6083 33.9393 32.597 34.408C31.5857 34.8767 30.5127 35.111 29.378 35.111C28.268 35.111 27.3923 34.7533 26.751 34.038C26.1343 33.298 25.826 32.484 25.826 31.596C25.826 30.6833 25.974 29.6597 26.27 28.525C26.566 27.3903 26.8867 26.2063 27.232 24.973C28.1693 21.6923 28.6503 19.386 28.675 18.054C28.675 17.4867 28.601 17.055 28.453 16.759C28.305 16.4383 28.0213 16.278 27.602 16.278C26.862 16.278 26.0727 16.722 25.234 17.61C24.3953 18.498 23.606 19.6327 22.866 21.014C21.164 24.1713 20.2637 27.2547 20.165 30.264C20.2143 30.6093 20.2637 30.9547 20.313 31.3C20.3623 31.6453 20.387 32.0153 20.387 32.41C20.387 33.1993 19.9923 33.927 19.203 34.593C18.4383 35.2343 17.575 35.555 16.613 35.555C16.0457 35.555 15.6263 35.2837 15.355 34.741C15.0837 34.1737 14.948 33.483 14.948 32.669C14.948 31.855 15.133 30.745 15.503 29.339C15.873 27.933 16.28 26.4407 16.724 24.862C17.908 20.6933 18.5123 17.5853 18.537 15.538C18.537 14.502 18.4013 13.688 18.13 13.096C17.8833 12.504 17.39 12.208 16.65 12.208C15.318 12.208 13.9983 13.1577 12.691 15.057C11.3837 16.9563 10.212 19.904 9.176 23.9C8.90467 24.936 8.695 25.8363 8.547 26.601L8.51 27.304C8.97867 29.5733 9.213 31.0533 9.213 31.744C9.213 33.1747 8.70733 34.1367 7.696 34.63C7.22733 34.852 6.771 35.0617 6.327 35.259C5.90767 35.4563 5.45133 35.555 4.958 35.555C3.72467 35.555 3.108 34.3833 3.108 32.04C3.108 29.672 3.76167 25.0593 5.069 18.202C5.53767 15.7353 5.772 14.354 5.772 14.058C5.772 12.06 5.26633 11.061 4.255 11.061C3.90967 11.061 3.589 11.1597 3.293 11.357C3.02167 11.5543 2.738 11.764 2.442 11.986C2.17067 12.208 1.887 12.4177 1.591 12.615C1.295 12.8123 0.949667 12.911 0.555 12.911C0.185 12.911 0 12.578 0 11.912C0 10.5553 0.629 9.44534 1.887 8.58201C3.09567 7.69401 4.56333 7.25001 6.29 7.25001C8.51 7.25001 9.81733 8.28601 10.212 10.358C10.3107 10.9747 10.3847 11.6283 10.434 12.319C12.2593 8.89034 14.5657 7.17601 17.353 7.17601C20.387 7.17601 22.126 8.63134 22.57 11.542C22.718 12.3807 22.7797 13.281 22.755 14.243V14.539C24.3583 12.319 26.2577 11.209 28.453 11.209C31.561 11.209 33.115 13.0837 33.115 16.833C33.115 18.461 32.856 20.3727 32.338 22.568C31.8447 24.7387 31.4747 26.305 31.228 27.267C31.006 28.2043 30.895 28.932 30.895 29.45C30.895 30.3873 31.2157 30.856 31.857 30.856C32.523 30.856 34.0893 29.5733 36.556 27.008C37 26.5147 37.3207 26.268 37.518 26.268Z" fill="#4C73ED"/>
<path d="M58.646 23.641C58.9667 23.641 59.2133 23.8013 59.386 24.122C59.5587 24.4427 59.645 24.8497 59.645 25.343C59.645 26.527 59.2873 27.23 58.572 27.452C57.092 27.97 55.464 28.266 53.688 28.34C53.2193 30.412 52.2943 32.077 50.913 33.335C49.5317 34.5683 47.9653 35.185 46.214 35.185C44.734 35.185 43.4637 34.8273 42.403 34.112C41.367 33.3967 40.5777 32.447 40.035 31.263C39.4923 30.079 39.221 28.7963 39.221 27.415C39.221 25.5403 39.5787 23.8753 40.294 22.42C41.0093 20.94 41.996 19.793 43.254 18.979C44.512 18.1403 45.9057 17.721 47.435 17.721C49.3097 17.721 50.8143 18.3747 51.949 19.682C53.1083 20.9647 53.7867 22.5557 53.984 24.455C55.1433 24.381 56.5247 24.1343 58.128 23.715C58.3253 23.6657 58.498 23.641 58.646 23.641ZM46.51 31.263C47.2993 31.263 47.9777 30.9423 48.545 30.301C49.137 29.6597 49.5317 28.7347 49.729 27.526C48.9643 27.008 48.3723 26.3297 47.953 25.491C47.5583 24.6523 47.361 23.7643 47.361 22.827C47.361 22.4323 47.398 22.0377 47.472 21.643H47.287C46.3003 21.643 45.474 22.124 44.808 23.086C44.1667 24.0233 43.846 25.3553 43.846 27.082C43.846 28.4387 44.105 29.4747 44.623 30.19C45.1657 30.9053 45.7947 31.263 46.51 31.263ZM61.0204 35.185C59.491 35.185 58.27 34.63 57.3574 33.52C56.4447 32.41 55.9884 30.9547 55.9884 29.154C55.9884 27.1807 56.4447 25.3183 57.3574 23.567C58.27 21.791 59.4787 20.3727 60.9834 19.312C62.5127 18.2267 64.1284 17.684 65.8304 17.684C66.373 17.684 66.7307 17.795 66.9034 18.017C67.1007 18.2143 67.261 18.5843 67.3844 19.127C67.9024 19.0283 68.445 18.979 69.0124 18.979C70.221 18.979 70.8254 19.4107 70.8254 20.274C70.8254 20.792 70.6404 22.0253 70.2704 23.974C69.703 26.8107 69.4194 28.784 69.4194 29.894C69.4194 30.264 69.5057 30.56 69.6784 30.782C69.8757 31.004 70.1224 31.115 70.4184 31.115C70.887 31.115 71.4544 30.819 72.1204 30.227C72.7864 29.6103 73.6867 28.6237 74.8214 27.267C75.1174 26.9217 75.4504 26.749 75.8204 26.749C76.141 26.749 76.3877 26.897 76.5604 27.193C76.7577 27.489 76.8564 27.896 76.8564 28.414C76.8564 29.4007 76.622 30.1653 76.1534 30.708C75.142 31.966 74.069 33.0267 72.9344 33.89C71.7997 34.7533 70.702 35.185 69.6414 35.185C68.8274 35.185 68.075 34.9137 67.3844 34.371C66.7184 33.8037 66.2127 33.039 65.8674 32.077C64.5847 34.149 62.969 35.185 61.0204 35.185ZM62.3524 31.448C62.895 31.448 63.413 31.1273 63.9064 30.486C64.3997 29.8447 64.7574 28.9937 64.9794 27.933L66.3484 21.125C65.3124 21.1497 64.3504 21.5443 63.4624 22.309C62.599 23.049 61.9084 24.0357 61.3904 25.269C60.8724 26.5023 60.6134 27.8097 60.6134 29.191C60.6134 29.9557 60.7614 30.523 61.0574 30.893C61.378 31.263 61.8097 31.448 62.3524 31.448ZM87.3172 26.749C87.5886 28.7717 87.9832 30.7697 88.5012 32.743C88.5999 33.0637 88.6492 33.3967 88.6492 33.742C88.6492 34.852 87.9709 35.407 86.6142 35.407C85.8496 35.407 85.2576 35.1973 84.8382 34.778C84.4436 34.3587 84.0736 33.5693 83.7282 32.41L83.6912 32.262C82.7539 33.4213 81.9029 34.1983 81.1382 34.593C80.3982 34.9877 79.5349 35.185 78.5482 35.185C77.0436 35.185 75.7979 34.63 74.8112 33.52C73.8492 32.3853 73.3682 30.9177 73.3682 29.117C73.3682 27.1437 73.7876 25.3183 74.6262 23.641C75.4649 21.9637 76.6119 20.5947 78.0672 19.534C79.5226 18.4487 81.1506 17.795 82.9512 17.573C83.4199 12.911 84.3079 8.85333 85.6152 5.4C86.9472 1.94667 88.7109 0.220001 90.9062 0.220001C91.9669 0.220001 92.8426 0.701001 93.5332 1.663C94.2486 2.625 94.6062 4.08033 94.6062 6.029C94.6062 8.74233 93.9402 11.912 92.6082 15.538C91.2762 19.164 89.5126 22.901 87.3172 26.749ZM90.4992 3.846C89.7839 3.846 89.1056 5.67133 88.4642 9.322C87.8476 12.9727 87.4282 16.944 87.2062 21.236C89.9442 15.316 91.3132 10.506 91.3132 6.806C91.3132 5.86867 91.2269 5.141 91.0542 4.623C90.9062 4.105 90.7212 3.846 90.4992 3.846ZM79.8432 31.448C80.3366 31.448 80.8052 31.263 81.2492 30.893C81.7179 30.523 82.3099 29.8077 83.0252 28.747C82.7786 26.9463 82.6552 25.084 82.6552 23.16C82.6552 22.3953 82.6676 21.8033 82.6922 21.384C81.3356 21.7787 80.2132 22.679 79.3252 24.085C78.4372 25.491 77.9932 27.045 77.9932 28.747C77.9932 30.5477 78.6099 31.448 79.8432 31.448Z" fill="#1F1F1F"/>
</g>
</g>
<defs>
<clipPath id="clip0_2_2">
<rect width="95" height="36" fill="white"/>
</clipPath>
</defs>
</svg>
